<?xml version="1.0" encoding="utf-8"?>
<!-- Generator: Adobe Illustrator 17.1.0, SVG Export Plug-In . SVG Version: 6.00 Build 0)  -->
<!DOCTYPE svg PUBLIC "-//W3C//DTD SVG 1.1//EN" "http://www.w3.org/Graphics/SVG/1.1/DTD/svg11.dtd">
<svg version="1.1" id="Capa_1" xmlns="http://www.w3.org/2000/svg" xmlns:xlink="http://www.w3.org/1999/xlink" x="0px" y="0px"
	 viewBox="0 0 33 37" enable-background="new 0 0 33 37" xml:space="preserve">
<g>
	<path fill="none" stroke="#010002" stroke-width="0.5" stroke-miterlimit="10" d="M2.5,9.2h27.8c1.4,0,2.5-1.1,2.5-2.5h0V2.5
		c0-1.4-1.1-2.5-2.5-2.5H2.5C1.1,0,0,1.1,0,2.5v4.1C0,8,1.1,9.2,2.5,9.2z"/>
	<path fill="none" stroke="#010002" stroke-width="0.5" stroke-miterlimit="10" d="M32.9,30.4c0-1.4-1.1-2.5-2.5-2.5H2.5
		C1.1,27.8,0,29,0,30.4v4.1C0,35.9,1.1,37,2.5,37h27.8c1.4,0,2.5-1.1,2.5-2.5h0V30.4z"/>
	<path fill="none" stroke="#010002" stroke-width="0.5" stroke-miterlimit="10" d="M32.9,16.4c0-1.4-1.1-2.5-2.5-2.5H2.5
		c-1.4,0-2.5,1.1-2.5,2.5v4.1c0,1.4,1.1,2.5,2.5,2.5h27.8c1.4,0,2.5-1.1,2.5-2.5h0L32.9,16.4L32.9,16.4z"/>
</g>
</svg>
