<?xml version="1.0" encoding="utf-8"?>
<!-- Generator: Adobe Illustrator 17.1.0, SVG Export Plug-In . SVG Version: 6.00 Build 0)  -->
<!DOCTYPE svg PUBLIC "-//W3C//DTD SVG 1.1//EN" "http://www.w3.org/Graphics/SVG/1.1/DTD/svg11.dtd">
<svg version="1.1" id="Capa_1" xmlns="http://www.w3.org/2000/svg" xmlns:xlink="http://www.w3.org/1999/xlink" x="0px" y="0px"
	 width="81.5px" height="52.1px" viewBox="0 0 81.5 52.1" enable-background="new 0 0 81.5 52.1" xml:space="preserve">
<g id="Capa_3">
	<path fill="none" stroke="#010101" stroke-width="2" stroke-miterlimit="10" d="M68.5,26.4c-1.3,0-2.5,0.2-3.6,0.6
		c0.6-1.9,0.9-3.8,0.9-5.9C65.7,10,56.7,1,45.6,1c-8.9,0-16.4,5.8-19.1,13.8c-1.7-1.4-3.9-2.2-6.3-2.2c-5.6,0-10.1,4.5-10.1,10.1
		c0,0.1,0,0.2,0,0.4C4.8,25.1,1,30.4,1,36.5c0,8,6.5,14.5,14.5,14.5c0.6,0,1.2,0,1.8-0.1v0h50.5v-0.1c0.2,0,0.4,0,0.7,0
		c6.7,0,12.1-5.5,12.1-12.3C80.5,31.9,75.1,26.4,68.5,26.4z"/>
</g>
</svg>
