<?xml version="1.0" encoding="utf-8"?>
<!-- Generator: Adobe Illustrator 17.1.0, SVG Export Plug-In . SVG Version: 6.00 Build 0)  -->
<!DOCTYPE svg PUBLIC "-//W3C//DTD SVG 1.1//EN" "http://www.w3.org/Graphics/SVG/1.1/DTD/svg11.dtd">
<svg version="1.1" id="Capa_1" xmlns="http://www.w3.org/2000/svg" xmlns:xlink="http://www.w3.org/1999/xlink" x="0px" y="0px"
	 width="82.5px" height="79.1px" viewBox="0 0 82.5 79.1" enable-background="new 0 0 82.5 79.1" xml:space="preserve">
<g>
	<rect x="0.5" y="0.5" fill="none" stroke="#000000" stroke-miterlimit="10" width="81.5" height="78.1"/>
	<rect x="2.3" y="22.2" fill="none" stroke="#000000" stroke-miterlimit="10" width="46.5" height="6"/>
	<rect x="2.3" y="33.2" fill="none" stroke="#000000" stroke-miterlimit="10" width="12.3" height="13.2"/>
	<rect x="51.8" y="38.2" fill="none" stroke="#000000" stroke-miterlimit="10" width="13.2" height="13.2"/>
	<rect x="51.8" y="22.2" fill="none" stroke="#000000" stroke-miterlimit="10" width="28.4" height="10.9"/>
	<rect x="68.2" y="38.2" fill="none" stroke="#000000" stroke-miterlimit="10" width="12" height="30.4"/>
	<rect x="51.8" y="55" fill="none" stroke="#000000" stroke-miterlimit="10" width="13.2" height="4.5"/>
	<rect x="51.8" y="63.7" fill="none" stroke="#000000" stroke-miterlimit="10" width="13.2" height="4.9"/>
	<rect x="18.4" y="33.2" fill="none" stroke="#000000" stroke-miterlimit="10" width="30.4" height="13.3"/>
	<rect x="2.3" y="50.9" fill="none" stroke="#000000" stroke-miterlimit="10" width="46.5" height="17.6"/>
	<rect x="5.7" y="56.1" fill="none" stroke="#000000" stroke-miterlimit="10" width="15.6" height="7.6"/>
	<rect x="26.3" y="56.1" fill="none" stroke="#000000" stroke-miterlimit="10" width="4.7" height="7.6"/>
	<line fill="none" stroke="#000000" stroke-miterlimit="10" x1="34.9" y1="55" x2="46.8" y2="55"/>
	<line fill="none" stroke="#000000" stroke-miterlimit="10" x1="34.9" y1="59.4" x2="46.8" y2="59.4"/>
	<line fill="none" stroke="#000000" stroke-miterlimit="10" x1="34.9" y1="64" x2="46.8" y2="64.1"/>
	<rect x="2.2" y="71.3" fill="none" stroke="#000000" stroke-miterlimit="10" width="78.1" height="4.4"/>
	<rect x="2.3" y="3.1" fill="none" stroke="#000000" stroke-miterlimit="10" width="78" height="15.5"/>
</g>
</svg>
