<?xml version="1.0" encoding="utf-8"?>
<!-- Generator: Adobe Illustrator 17.1.0, SVG Export Plug-In . SVG Version: 6.00 Build 0)  -->
<!DOCTYPE svg PUBLIC "-//W3C//DTD SVG 1.1//EN" "http://www.w3.org/Graphics/SVG/1.1/DTD/svg11.dtd">
<svg version="1.1" id="Capa_1" xmlns="http://www.w3.org/2000/svg" xmlns:xlink="http://www.w3.org/1999/xlink" x="0px" y="0px"
	 viewBox="0 0 1054.4 639.3" enable-background="new 0 0 1054.4 639.3" xml:space="preserve">
<path fill-rule="evenodd" clip-rule="evenodd" fill="#F2FCFF" d="M181,37.8l33-36.1h51.3L181,37.8z"/>
<path fill-rule="evenodd" clip-rule="evenodd" fill="#5DAAC3" d="M0,180.6h29.1L129.2,72.7L0,180.6"/>
<path fill-rule="evenodd" clip-rule="evenodd" fill="#D1F4FF" d="M47.9,180.6h92.4l5.1-104.4L47.9,180.6z"/>
<path fill-rule="evenodd" clip-rule="evenodd" fill="#F2FCFF" d="M0,194.3h30l178,177.2L0,194.3"/>
<path fill-rule="evenodd" clip-rule="evenodd" fill="#97CEE0" d="M49.6,194.3h89l174.6,261.9L49.6,194.3z"/>
<path fill-rule="evenodd" clip-rule="evenodd" fill="#97CEE0" d="M298.7,2.6L159.2,62.5l-6,112.1L346.6,46.2L298.7,2.6z"/>
<path fill-rule="evenodd" clip-rule="evenodd" fill="#D1F4FF" d="M349.2,59.9L168.6,179.7l161.8,0.9L349.2,59.9z"/>
<path fill-rule="evenodd" clip-rule="evenodd" fill="#5DAAC3" d="M316.7,0.9l42.8,38.5l119-37.7L316.7,0.9z"/>
<path fill-rule="evenodd" clip-rule="evenodd" fill="#F2FCFF" d="M362.9,59.1l-19.7,121.5h164.3L362.9,59.1z"/>
<path fill-rule="evenodd" clip-rule="evenodd" fill="#5DAAC3" d="M150.6,193.4h181.4l123.2,312.4L150.6,193.4z"/>
<path fill-rule="evenodd" clip-rule="evenodd" fill="#D1F4FF" d="M194.3,257.6L362,503.2l146.3,126.7l-40.2-92.4L194.3,257.6z"/>
<path fill-rule="evenodd" clip-rule="evenodd" fill="#D1F4FF" d="M345.8,194.3h174.6l-49.6,314.9L345.8,194.3z"/>
<path fill-rule="evenodd" clip-rule="evenodd" fill="#F2FCFF" d="M526.3,238.8L481,532.3l46.2,107l45.4-107.8L526.3,238.8z"/>
<path fill-rule="evenodd" clip-rule="evenodd" fill="#D1F4FF" d="M527.2,180.6L682.1,49.6L527.2,0L371.4,48.8L527.2,180.6z"/>
<path fill-rule="evenodd" clip-rule="evenodd" fill="#D1F4FF" d="M873.4,37.8l-33-36.1h-51.3L873.4,37.8z"/>
<path fill-rule="evenodd" clip-rule="evenodd" fill="#F2FCFF" d="M1054.4,180.6h-29.1L925.1,72.7L1054.4,180.6"/>
<path fill-rule="evenodd" clip-rule="evenodd" fill="#5DAAC3" d="M1006.5,180.6H914l-5.1-104.4L1006.5,180.6z"/>
<path fill-rule="evenodd" clip-rule="evenodd" fill="#D1F4FF" d="M1054.4,194.3h-30l-178,177.2L1054.4,194.3"/>
<path fill-rule="evenodd" clip-rule="evenodd" fill="#F2FCFF" d="M1004.7,194.3h-89L741.1,456.2L1004.7,194.3z"/>
<path fill-rule="evenodd" clip-rule="evenodd" fill="#F2FCFF" d="M755.7,2.6l139.5,59.9l6,112.1L707.8,46.2L755.7,2.6z"/>
<path fill-rule="evenodd" clip-rule="evenodd" fill="#97CEE0" d="M705.2,59.9l180.6,119.8L724,180.6L705.2,59.9z"/>
<path fill-rule="evenodd" clip-rule="evenodd" fill="#97CEE0" d="M737.7,0.9l-42.8,38.5L576,1.7L737.7,0.9z"/>
<path fill-rule="evenodd" clip-rule="evenodd" fill="#5DAAC3" d="M691.5,59.1l19.7,121.5H546.9L691.5,59.1z"/>
<path fill-rule="evenodd" clip-rule="evenodd" fill="#D1F4FF" d="M903.8,193.4H722.3L599.1,505.8L903.8,193.4z"/>
<path fill-rule="evenodd" clip-rule="evenodd" fill="#97CEE0" d="M860.1,257.6L692.4,503.2L546,629.9l40.2-92.4L860.1,257.6z"/>
<path fill-rule="evenodd" clip-rule="evenodd" fill="#97CEE0" d="M708.6,194.3H534l49.6,314.9L708.6,194.3z"/>
</svg>
