<?xml version="1.0" encoding="utf-8"?>
<!-- Generator: Adobe Illustrator 17.1.0, SVG Export Plug-In . SVG Version: 6.00 Build 0)  -->
<!DOCTYPE svg PUBLIC "-//W3C//DTD SVG 1.1//EN" "http://www.w3.org/Graphics/SVG/1.1/DTD/svg11.dtd">
<svg version="1.1" id="Capa_1" xmlns="http://www.w3.org/2000/svg" xmlns:xlink="http://www.w3.org/1999/xlink" x="0px" y="0px"
	 width="448.7px" height="272px" viewBox="0 0 448.7 272" enable-background="new 0 0 448.7 272" xml:space="preserve">
<g>
	<path fill="#F2FCFF" d="M77,16.1l14-15.4h21.8L77,16.1z"/>
	<path fill="#5DAAC3" d="M0,76.8h12.4L55,30.9L0,76.8"/>
	<path fill="#D1F4FF" d="M20.4,76.8h39.3l2.2-44.4L20.4,76.8z"/>
	<path fill="#F2FCFF" d="M0,82.7h12.8l75.7,75.4L0,82.7"/>
	<path fill="#97CEE0" d="M21.1,82.7H59l74.3,111.4L21.1,82.7z"/>
	<path fill="#97CEE0" d="M127.1,1.1L67.7,26.6l-2.6,47.7l82.3-54.6L127.1,1.1z"/>
	<path fill="#D1F4FF" d="M148.6,25.5l-76.8,51l68.8,0.4L148.6,25.5z"/>
	<path fill="#5DAAC3" d="M134.8,0.4L153,16.8l50.6-16L134.8,0.4z"/>
	<path fill="#F2FCFF" d="M154.4,25.1L146,76.8H216L154.4,25.1z"/>
	<path fill="#5DAAC3" d="M64.1,82.3h77.2l52.4,132.9L64.1,82.3z"/>
	<path fill="#D1F4FF" d="M82.7,109.6L154,214.1l62.3,53.9l-17.1-39.3L82.7,109.6z"/>
	<path fill="#D1F4FF" d="M147.1,82.7h74.3l-21.1,134L147.1,82.7z"/>
	<path fill="#F2FCFF" d="M224,101.6l-19.3,124.9l19.7,45.5l19.3-45.9L224,101.6z"/>
	<path fill="#D1F4FF" d="M224.3,76.8l65.9-55.7L224.3,0L158,20.8L224.3,76.8z"/>
	<path fill="#D1F4FF" d="M371.7,16.1l-14-15.4h-21.8L371.7,16.1z"/>
	<path fill="#F2FCFF" d="M448.7,76.8h-12.4l-42.6-45.9L448.7,76.8"/>
	<path fill="#5DAAC3" d="M428.3,76.8h-39.4l-2.2-44.4L428.3,76.8z"/>
	<path fill="#D1F4FF" d="M448.7,82.7h-12.8l-75.7,75.4L448.7,82.7"/>
	<path fill="#F2FCFF" d="M427.5,82.7h-37.9l-74.3,111.4L427.5,82.7z"/>
	<path fill="#F2FCFF" d="M321.6,1.1l59.4,25.5l2.6,47.7l-82.3-54.6L321.6,1.1z"/>
	<path fill="#97CEE0" d="M300.1,25.5l76.8,51l-68.8,0.4L300.1,25.5z"/>
	<path fill="#97CEE0" d="M313.9,0.4l-18.2,16.4l-50.6-16L313.9,0.4z"/>
	<path fill="#5DAAC3" d="M294.2,25.1l8.4,51.7h-69.9L294.2,25.1z"/>
	<path fill="#D1F4FF" d="M384.6,82.3h-77.2l-52.4,132.9L384.6,82.3z"/>
	<path fill="#97CEE0" d="M366,109.6l-71.4,104.5L232.3,268l17.1-39.3L366,109.6z"/>
	<path fill="#97CEE0" d="M301.5,82.7h-74.3l21.1,134L301.5,82.7z"/>
</g>
</svg>
