<?xml version="1.0" encoding="utf-8"?>
<!-- Generator: Adobe Illustrator 16.0.0, SVG Export Plug-In . SVG Version: 6.00 Build 0)  -->
<!DOCTYPE svg PUBLIC "-//W3C//DTD SVG 1.1//EN" "http://www.w3.org/Graphics/SVG/1.1/DTD/svg11.dtd">
<svg version="1.1" id="Capa_1" xmlns="http://www.w3.org/2000/svg" xmlns:xlink="http://www.w3.org/1999/xlink" x="0px" y="0px"
	 width="187.8px" height="131.1px" viewBox="0 0 187.8 131.1" enable-background="new 0 0 187.8 131.1" xml:space="preserve">
<g>
	<polygon fill="#BBD9F3" points="94.2,0 61.8,12.5 94,37.8 125.201,12.4 	"/>
	<polygon fill="#A2C5DB" points="0,37.8 28.7,37.8 93.3,131.1 	"/>
	<polygon fill="#80A5C4" points="94,37.8 28.7,37.8 93.3,131.1 	"/>
	<polygon fill="#4E6E95" points="159.201,37.9 93.3,131.1 94,37.8 	"/>
	<polygon fill="#5281A7" points="187.8,37.9 93.3,131.1 159.201,37.9 	"/>
	<polygon fill="#8AB1C6" points="187.8,37.9 158.8,38 159.8,13.1 	"/>
	<path fill="none" stroke="#0A0A0A" stroke-miterlimit="10" d="M177,1.4"/>
	<polygon fill="#9EC4DB" points="136.3,0.5 124.529,12.958 158.8,38 159.8,13.1 	"/>
	<polygon fill="#BCD6E5" points="136.3,0.5 137,0.5 144.8,0.8 159.8,13.1 	"/>
	<polyline fill="#87ADCA" points="124.634,12.972 159.1,38 94,37.8 124.6,12.9 	"/>
	<polygon fill="#A2C6DE" points="94,37.8 28.7,37.8 61.8,12.5 	"/>
	<polygon fill="#C8E2F9" points="52.6,0.4 29.1,13 28.7,37.8 61.8,12.5 	"/>
	<polygon fill="#CCE3F5" points="94.2,0 136.3,0.5 124.6,12.9 	"/>
	<polygon fill="#D6E8FD" points="29.3,12.8 0,37.8 28.7,37.8 	"/>
	<path fill="#3D4144" stroke="#3D4144" stroke-miterlimit="10" d="M6.8,8.4"/>
	<polygon fill="#D8E9F9" points="94.2,0 52.6,0.4 61.8,12.5 	"/>
	<polygon fill="#D8E9F9" points="52.6,0.4 43.8,0.1 29.1,13 	"/>
</g>
</svg>
